<svg xmlns="http://www.w3.org/2000/svg" width="420" height="606.7387013524526" viewBox="0 0 420 606.7387013524526">
<rect width="420" height="606.7387013524526" fill="black"/>
<circle cx="260" cy="396.7387013524526" r="30" fill="none" stroke="yellow" stroke-width="2"/>
<circle cx="260" cy="396.7387013524526" r="30" fill="none" stroke="yellow" stroke-width="2"/>
<circle cx="260" cy="396.7387013524526" r="30" fill="none" stroke="yellow" stroke-width="2"/>
<circle cx="260" cy="396.7387013524526" r="30" fill="none" stroke="yellow" stroke-width="2"/>
<circle cx="260" cy="396.7387013524526" r="30" fill="none" stroke="yellow" stroke-width="2"/>
<circle cx="260" cy="396.7387013524526" r="30" fill="none" stroke="yellow" stroke-width="2"/>
<circle cx="260" cy="396.7387013524526" r="30" fill="none" stroke="yellow" stroke-width="2"/>
<circle cx="260" cy="396.7387013524526" r="30" fill="none" stroke="yellow" stroke-width="2"/>
<circle cx="260" cy="396.7387013524526" r="30" fill="none" stroke="yellow" stroke-width="2"/>
<circle cx="260" cy="396.7387013524526" r="30" fill="none" stroke="yellow" stroke-width="2"/>
<circle cx="260" cy="396.7387013524526" r="30" fill="none" stroke="yellow" stroke-width="2"/>
<circle cx="260" cy="396.7387013524526" r="30" fill="none" stroke="yellow" stroke-width="2"/>
<circle cx="260" cy="396.7387013524526" r="30" fill="none" stroke="yellow" stroke-width="2"/>
<circle cx="260" cy="396.7387013524526" r="30" fill="none" stroke="yellow" stroke-width="2"/>
<circle cx="260" cy="396.7387013524526" r="30" fill="none" stroke="yellow" stroke-width="2"/>
<circle cx="260" cy="396.7387013524526" r="30" fill="none" stroke="yellow" stroke-width="2"/>
<circle cx="260" cy="396.7387013524526" r="30" fill="none" stroke="yellow" stroke-width="2"/>
<circle cx="260" cy="396.7387013524526" r="30" fill="none" stroke="yellow" stroke-width="2"/>
<circle cx="260" cy="396.7387013524526" r="30" fill="none" stroke="yellow" stroke-width="2"/>
<circle cx="260" cy="396.7387013524526" r="30" fill="none" stroke="yellow" stroke-width="2"/>
<circle cx="260" cy="396.7387013524526" r="30" fill="none" stroke="yellow" stroke-width="2"/>
<circle cx="260" cy="396.7387013524526" r="30" fill="none" stroke="yellow" stroke-width="2"/>
<circle cx="260" cy="396.7387013524526" r="30" fill="none" stroke="yellow" stroke-width="2"/>
<circle cx="260" cy="396.7387013524526" r="30" fill="none" stroke="yellow" stroke-width="2"/>
<circle cx="260" cy="396.7387013524526" r="30" fill="none" stroke="yellow" stroke-width="2"/>
<circle cx="260" cy="396.7387013524526" r="30" fill="none" stroke="yellow" stroke-width="2"/>
<circle cx="260" cy="396.7387013524526" r="30" fill="none" stroke="yellow" stroke-width="2"/>
<circle cx="260" cy="396.7387013524526" r="30" fill="none" stroke="yellow" stroke-width="2"/>
<circle cx="260" cy="396.7387013524526" r="30" fill="none" stroke="yellow" stroke-width="2"/>
<circle cx="260" cy="396.7387013524526" r="30" fill="none" stroke="yellow" stroke-width="2"/>
<circle cx="260" cy="396.7387013524526" r="30" fill="none" stroke="yellow" stroke-width="2"/>
<circle cx="260" cy="396.7387013524526" r="30" fill="none" stroke="yellow" stroke-width="2"/>
<circle cx="260" cy="396.7387013524526" r="30" fill="none" stroke="yellow" stroke-width="2"/>
<circle cx="260" cy="396.7387013524526" r="30" fill="none" stroke="yellow" stroke-width="2"/>
<circle cx="260" cy="396.7387013524526" r="30" fill="none" stroke="yellow" stroke-width="2"/>
<circle cx="260" cy="396.7387013524526" r="30" fill="none" stroke="yellow" stroke-width="2"/>
<path d="M20,20 C80,20 20,100 250,146.7387013524526" fill="none" stroke="cyan" stroke-width="2"/>
<path d="M20,20 C80,20 20,100 269.3185165257814,141.56232045040218" fill="none" stroke="cyan" stroke-width="2"/>
<path d="M20,20 C80,20 20,100 286.63902460147017,131.56232045040218" fill="none" stroke="cyan" stroke-width="2"/>
<path d="M20,20 C80,20 20,100 300.7811602252011,117.42018482667123" fill="none" stroke="cyan" stroke-width="2"/>
<path d="M20,20 C80,20 20,100 310.7811602252011,100.09967675098244" fill="none" stroke="cyan" stroke-width="2"/>
<path d="M20,20 C80,20 20,100 315.9575411272515,80.78116022520112" fill="none" stroke="cyan" stroke-width="2"/>
<path d="M20,20 C80,20 20,100 315.9575411272515,60.78116022520112" fill="none" stroke="cyan" stroke-width="2"/>
<path d="M20,20 C80,20 20,100 310.7811602252011,41.46264369941969" fill="none" stroke="cyan" stroke-width="2"/>
<path d="M20,20 C80,20 20,100 300.7811602252011,24.14213562373095" fill="none" stroke="cyan" stroke-width="2"/>
<path d="M20,20 C80,20 20,100 286.63902460147017,10" fill="none" stroke="cyan" stroke-width="2"/>
<line x1="210" y1="396.7387013524526" x2="410" y2="396.7387013524526" stroke="black" stroke-width="2"/>
<line x1="410" y1="396.7387013524526" x2="210" y2="396.7387013524526" stroke="red" stroke-width="2"/>
<line x1="210" y1="396.7387013524526" x2="409.23893961834915" y2="379.307552802921" stroke="black" stroke-width="2"/>
<line x1="409.23893961834915" y1="379.307552802921" x2="210" y2="396.7387013524526" stroke="red" stroke-width="2"/>
<line x1="210" y1="396.7387013524526" x2="406.9615506024416" y2="362.00906581906656" stroke="black" stroke-width="2"/>
<line x1="406.9615506024416" y1="362.00906581906656" x2="210" y2="396.7387013524526" stroke="red" stroke-width="2"/>
<line x1="210" y1="396.7387013524526" x2="403.18516525781365" y2="344.97489233194847" stroke="black" stroke-width="2"/>
<line x1="403.18516525781365" y1="344.97489233194847" x2="210" y2="396.7387013524526" stroke="red" stroke-width="2"/>
<line x1="210" y1="396.7387013524526" x2="397.9385241571817" y2="328.33467268731886" stroke="black" stroke-width="2"/>
<line x1="397.9385241571817" y1="328.33467268731886" x2="210" y2="396.7387013524526" stroke="red" stroke-width="2"/>
<line x1="210" y1="396.7387013524526" x2="391.26155740733" y2="312.21504900431273" stroke="black" stroke-width="2"/>
<line x1="391.26155740733" y1="312.21504900431273" x2="210" y2="396.7387013524526" stroke="red" stroke-width="2"/>
<line x1="210" y1="396.7387013524526" x2="383.20508075688775" y2="296.7387013524526" stroke="black" stroke-width="2"/>
<line x1="383.20508075688775" y1="296.7387013524526" x2="210" y2="396.7387013524526" stroke="red" stroke-width="2"/>
<line x1="210" y1="396.7387013524526" x2="373.8304088577984" y2="282.0234140822434" stroke="black" stroke-width="2"/>
<line x1="373.8304088577984" y1="282.0234140822434" x2="210" y2="396.7387013524526" stroke="red" stroke-width="2"/>
<line x1="210" y1="396.7387013524526" x2="363.2088886237956" y2="268.18117941514475" stroke="black" stroke-width="2"/>
<line x1="363.2088886237956" y1="268.18117941514475" x2="210" y2="396.7387013524526" stroke="red" stroke-width="2"/>
<line x1="210" y1="396.7387013524526" x2="351.4213562373095" y2="255.3173451151431" stroke="black" stroke-width="2"/>
<line x1="351.4213562373095" y1="255.3173451151431" x2="210" y2="396.7387013524526" stroke="red" stroke-width="2"/>
<line x1="210" y1="396.7387013524526" x2="338.5575219373079" y2="243.52981272865702" stroke="black" stroke-width="2"/>
<line x1="338.5575219373079" y1="243.52981272865702" x2="210" y2="396.7387013524526" stroke="red" stroke-width="2"/>
<line x1="210" y1="396.7387013524526" x2="324.7152872702092" y2="232.90829249465423" stroke="black" stroke-width="2"/>
<line x1="324.7152872702092" y1="232.90829249465423" x2="210" y2="396.7387013524526" stroke="red" stroke-width="2"/>
<line x1="210" y1="396.7387013524526" x2="310" y2="223.5336205955649" stroke="black" stroke-width="2"/>
<line x1="310" y1="223.5336205955649" x2="210" y2="396.7387013524526" stroke="red" stroke-width="2"/>
<line x1="210" y1="396.7387013524526" x2="294.5236523481399" y2="215.47714394512263" stroke="black" stroke-width="2"/>
<line x1="294.5236523481399" y1="215.47714394512263" x2="210" y2="396.7387013524526" stroke="red" stroke-width="2"/>
<line x1="210" y1="396.7387013524526" x2="278.40402866513375" y2="208.80017719527098" stroke="black" stroke-width="2"/>
<line x1="278.40402866513375" y1="208.80017719527098" x2="210" y2="396.7387013524526" stroke="red" stroke-width="2"/>
<line x1="210" y1="396.7387013524526" x2="261.76380902050414" y2="203.55353609463896" stroke="black" stroke-width="2"/>
<line x1="261.76380902050414" y1="203.55353609463896" x2="210" y2="396.7387013524526" stroke="red" stroke-width="2"/>
<line x1="210" y1="396.7387013524526" x2="244.72963553338607" y2="199.777150750011" stroke="black" stroke-width="2"/>
<line x1="244.72963553338607" y1="199.777150750011" x2="210" y2="396.7387013524526" stroke="red" stroke-width="2"/>
<line x1="210" y1="396.7387013524526" x2="227.43114854953163" y2="197.49976173410346" stroke="black" stroke-width="2"/>
<line x1="227.43114854953163" y1="197.49976173410346" x2="210" y2="396.7387013524526" stroke="red" stroke-width="2"/>
<line x1="210" y1="396.7387013524526" x2="210" y2="196.7387013524526" stroke="black" stroke-width="2"/>
<line x1="210" y1="196.7387013524526" x2="210" y2="396.7387013524526" stroke="red" stroke-width="2"/>
<line x1="210" y1="396.7387013524526" x2="192.56885145046834" y2="197.49976173410346" stroke="black" stroke-width="2"/>
<line x1="192.56885145046834" y1="197.49976173410346" x2="210" y2="396.7387013524526" stroke="red" stroke-width="2"/>
<line x1="210" y1="396.7387013524526" x2="175.27036446661396" y2="199.777150750011" stroke="black" stroke-width="2"/>
<line x1="175.27036446661396" y1="199.777150750011" x2="210" y2="396.7387013524526" stroke="red" stroke-width="2"/>
<line x1="210" y1="396.7387013524526" x2="158.23619097949583" y2="203.55353609463896" stroke="black" stroke-width="2"/>
<line x1="158.23619097949583" y1="203.55353609463896" x2="210" y2="396.7387013524526" stroke="red" stroke-width="2"/>
<line x1="210" y1="396.7387013524526" x2="141.59597133486625" y2="208.80017719527092" stroke="black" stroke-width="2"/>
<line x1="141.59597133486625" y1="208.80017719527092" x2="210" y2="396.7387013524526" stroke="red" stroke-width="2"/>
<line x1="210" y1="396.7387013524526" x2="125.47634765186014" y2="215.47714394512263" stroke="black" stroke-width="2"/>
<line x1="125.47634765186014" y1="215.47714394512263" x2="210" y2="396.7387013524526" stroke="red" stroke-width="2"/>
<line x1="210" y1="396.7387013524526" x2="110.00000000000004" y2="223.53362059556486" stroke="black" stroke-width="2"/>
<line x1="110.00000000000004" y1="223.53362059556486" x2="210" y2="396.7387013524526" stroke="red" stroke-width="2"/>
<line x1="210" y1="396.7387013524526" x2="95.28471272979084" y2="232.90829249465423" stroke="black" stroke-width="2"/>
<line x1="95.28471272979084" y1="232.90829249465423" x2="210" y2="396.7387013524526" stroke="red" stroke-width="2"/>
<line x1="210" y1="396.7387013524526" x2="81.44247806269212" y2="243.52981272865702" stroke="black" stroke-width="2"/>
<line x1="81.44247806269212" y1="243.52981272865702" x2="210" y2="396.7387013524526" stroke="red" stroke-width="2"/>
<line x1="210" y1="396.7387013524526" x2="68.57864376269052" y2="255.3173451151431" stroke="black" stroke-width="2"/>
<line x1="68.57864376269052" y1="255.3173451151431" x2="210" y2="396.7387013524526" stroke="red" stroke-width="2"/>
<line x1="210" y1="396.7387013524526" x2="56.79111137620441" y2="268.1811794151447" stroke="black" stroke-width="2"/>
<line x1="56.79111137620441" y1="268.1811794151447" x2="210" y2="396.7387013524526" stroke="red" stroke-width="2"/>
<line x1="210" y1="396.7387013524526" x2="46.16959114220168" y2="282.02341408224333" stroke="black" stroke-width="2"/>
<line x1="46.16959114220168" y1="282.02341408224333" x2="210" y2="396.7387013524526" stroke="red" stroke-width="2"/>
<line x1="210" y1="396.7387013524526" x2="36.79491924311225" y2="296.7387013524526" stroke="black" stroke-width="2"/>
<line x1="36.79491924311225" y1="296.7387013524526" x2="210" y2="396.7387013524526" stroke="red" stroke-width="2"/>
<line x1="210" y1="396.7387013524526" x2="28.738442592670026" y2="312.21504900431273" stroke="black" stroke-width="2"/>
<line x1="28.738442592670026" y1="312.21504900431273" x2="210" y2="396.7387013524526" stroke="red" stroke-width="2"/>
<line x1="210" y1="396.7387013524526" x2="22.06147584281834" y2="328.33467268731886" stroke="black" stroke-width="2"/>
<line x1="22.06147584281834" y1="328.33467268731886" x2="210" y2="396.7387013524526" stroke="red" stroke-width="2"/>
<line x1="210" y1="396.7387013524526" x2="16.81483474218635" y2="344.9748923319484" stroke="black" stroke-width="2"/>
<line x1="16.81483474218635" y1="344.9748923319484" x2="210" y2="396.7387013524526" stroke="red" stroke-width="2"/>
<line x1="210" y1="396.7387013524526" x2="13.038449397558395" y2="362.00906581906656" stroke="black" stroke-width="2"/>
<line x1="13.038449397558395" y1="362.00906581906656" x2="210" y2="396.7387013524526" stroke="red" stroke-width="2"/>
<line x1="210" y1="396.7387013524526" x2="10.761060381650879" y2="379.3075528029209" stroke="black" stroke-width="2"/>
<line x1="10.761060381650879" y1="379.3075528029209" x2="210" y2="396.7387013524526" stroke="red" stroke-width="2"/>
<line x1="210" y1="396.7387013524526" x2="10" y2="396.7387013524526" stroke="black" stroke-width="2"/>
<line x1="10" y1="396.7387013524526" x2="210" y2="396.7387013524526" stroke="red" stroke-width="2"/>
<line x1="210" y1="396.7387013524526" x2="10.761060381650879" y2="414.1698499019842" stroke="black" stroke-width="2"/>
<line x1="10.761060381650879" y1="414.1698499019842" x2="210" y2="396.7387013524526" stroke="red" stroke-width="2"/>
<line x1="210" y1="396.7387013524526" x2="13.038449397558395" y2="431.4683368858387" stroke="black" stroke-width="2"/>
<line x1="13.038449397558395" y1="431.4683368858387" x2="210" y2="396.7387013524526" stroke="red" stroke-width="2"/>
<line x1="210" y1="396.7387013524526" x2="16.81483474218632" y2="448.5025103729567" stroke="black" stroke-width="2"/>
<line x1="16.81483474218632" y1="448.5025103729567" x2="210" y2="396.7387013524526" stroke="red" stroke-width="2"/>
<line x1="210" y1="396.7387013524526" x2="22.06147584281831" y2="465.14273001758636" stroke="black" stroke-width="2"/>
<line x1="22.06147584281831" y1="465.14273001758636" x2="210" y2="396.7387013524526" stroke="red" stroke-width="2"/>
<line x1="210" y1="396.7387013524526" x2="28.738442592669998" y2="481.2623537005925" stroke="black" stroke-width="2"/>
<line x1="28.738442592669998" y1="481.2623537005925" x2="210" y2="396.7387013524526" stroke="red" stroke-width="2"/>
<line x1="210" y1="396.7387013524526" x2="36.794919243112275" y2="496.7387013524526" stroke="black" stroke-width="2"/>
<line x1="36.794919243112275" y1="496.7387013524526" x2="210" y2="396.7387013524526" stroke="red" stroke-width="2"/>
<line x1="210" y1="396.7387013524526" x2="46.1695911422016" y2="511.45398862266177" stroke="black" stroke-width="2"/>
<line x1="46.1695911422016" y1="511.45398862266177" x2="210" y2="396.7387013524526" stroke="red" stroke-width="2"/>
<line x1="210" y1="396.7387013524526" x2="56.791111376204384" y2="525.2962232897605" stroke="black" stroke-width="2"/>
<line x1="56.791111376204384" y1="525.2962232897605" x2="210" y2="396.7387013524526" stroke="red" stroke-width="2"/>
<line x1="210" y1="396.7387013524526" x2="68.57864376269046" y2="538.1600575897621" stroke="black" stroke-width="2"/>
<line x1="68.57864376269046" y1="538.1600575897621" x2="210" y2="396.7387013524526" stroke="red" stroke-width="2"/>
<line x1="210" y1="396.7387013524526" x2="81.44247806269212" y2="549.9475899762482" stroke="black" stroke-width="2"/>
<line x1="81.44247806269212" y1="549.9475899762482" x2="210" y2="396.7387013524526" stroke="red" stroke-width="2"/>
<line x1="210" y1="396.7387013524526" x2="95.28471272979073" y2="560.569110210251" stroke="black" stroke-width="2"/>
<line x1="95.28471272979073" y1="560.569110210251" x2="210" y2="396.7387013524526" stroke="red" stroke-width="2"/>
<line x1="210" y1="396.7387013524526" x2="109.99999999999991" y2="569.9437821093403" stroke="black" stroke-width="2"/>
<line x1="109.99999999999991" y1="569.9437821093403" x2="210" y2="396.7387013524526" stroke="red" stroke-width="2"/>
<line x1="210" y1="396.7387013524526" x2="125.47634765186001" y2="578.0002587597826" stroke="black" stroke-width="2"/>
<line x1="125.47634765186001" y1="578.0002587597826" x2="210" y2="396.7387013524526" stroke="red" stroke-width="2"/>
<line x1="210" y1="396.7387013524526" x2="141.59597133486614" y2="584.6772255096342" stroke="black" stroke-width="2"/>
<line x1="141.59597133486614" y1="584.6772255096342" x2="210" y2="396.7387013524526" stroke="red" stroke-width="2"/>
<line x1="210" y1="396.7387013524526" x2="158.23619097949586" y2="589.9238666102663" stroke="black" stroke-width="2"/>
<line x1="158.23619097949586" y1="589.9238666102663" x2="210" y2="396.7387013524526" stroke="red" stroke-width="2"/>
<line x1="210" y1="396.7387013524526" x2="175.27036446661393" y2="593.7002519548942" stroke="black" stroke-width="2"/>
<line x1="175.27036446661393" y1="593.7002519548942" x2="210" y2="396.7387013524526" stroke="red" stroke-width="2"/>
<line x1="210" y1="396.7387013524526" x2="192.56885145046834" y2="595.9776409708018" stroke="black" stroke-width="2"/>
<line x1="192.56885145046834" y1="595.9776409708018" x2="210" y2="396.7387013524526" stroke="red" stroke-width="2"/>
<line x1="210" y1="396.7387013524526" x2="209.99999999999997" y2="596.7387013524526" stroke="black" stroke-width="2"/>
<line x1="209.99999999999997" y1="596.7387013524526" x2="210" y2="396.7387013524526" stroke="red" stroke-width="2"/>
<line x1="210" y1="396.7387013524526" x2="227.43114854953157" y2="595.9776409708018" stroke="black" stroke-width="2"/>
<line x1="227.43114854953157" y1="595.9776409708018" x2="210" y2="396.7387013524526" stroke="red" stroke-width="2"/>
<line x1="210" y1="396.7387013524526" x2="244.729635533386" y2="593.7002519548943" stroke="black" stroke-width="2"/>
<line x1="244.729635533386" y1="593.7002519548943" x2="210" y2="396.7387013524526" stroke="red" stroke-width="2"/>
<line x1="210" y1="396.7387013524526" x2="261.76380902050425" y2="589.9238666102663" stroke="black" stroke-width="2"/>
<line x1="261.76380902050425" y1="589.9238666102663" x2="210" y2="396.7387013524526" stroke="red" stroke-width="2"/>
<line x1="210" y1="396.7387013524526" x2="278.40402866513364" y2="584.6772255096344" stroke="black" stroke-width="2"/>
<line x1="278.40402866513364" y1="584.6772255096344" x2="210" y2="396.7387013524526" stroke="red" stroke-width="2"/>
<line x1="210" y1="396.7387013524526" x2="294.52365234813993" y2="578.0002587597826" stroke="black" stroke-width="2"/>
<line x1="294.52365234813993" y1="578.0002587597826" x2="210" y2="396.7387013524526" stroke="red" stroke-width="2"/>
<line x1="210" y1="396.7387013524526" x2="310" y2="569.9437821093403" stroke="black" stroke-width="2"/>
<line x1="310" y1="569.9437821093403" x2="210" y2="396.7387013524526" stroke="red" stroke-width="2"/>
<line x1="210" y1="396.7387013524526" x2="324.7152872702092" y2="560.569110210251" stroke="black" stroke-width="2"/>
<line x1="324.7152872702092" y1="560.569110210251" x2="210" y2="396.7387013524526" stroke="red" stroke-width="2"/>
<line x1="210" y1="396.7387013524526" x2="338.55752193730785" y2="549.9475899762482" stroke="black" stroke-width="2"/>
<line x1="338.55752193730785" y1="549.9475899762482" x2="210" y2="396.7387013524526" stroke="red" stroke-width="2"/>
<line x1="210" y1="396.7387013524526" x2="351.4213562373095" y2="538.1600575897621" stroke="black" stroke-width="2"/>
<line x1="351.4213562373095" y1="538.1600575897621" x2="210" y2="396.7387013524526" stroke="red" stroke-width="2"/>
<line x1="210" y1="396.7387013524526" x2="363.2088886237956" y2="525.2962232897605" stroke="black" stroke-width="2"/>
<line x1="363.2088886237956" y1="525.2962232897605" x2="210" y2="396.7387013524526" stroke="red" stroke-width="2"/>
<line x1="210" y1="396.7387013524526" x2="373.8304088577983" y2="511.4539886226619" stroke="black" stroke-width="2"/>
<line x1="373.8304088577983" y1="511.4539886226619" x2="210" y2="396.7387013524526" stroke="red" stroke-width="2"/>
<line x1="210" y1="396.7387013524526" x2="383.2050807568877" y2="496.7387013524527" stroke="black" stroke-width="2"/>
<line x1="383.2050807568877" y1="496.7387013524527" x2="210" y2="396.7387013524526" stroke="red" stroke-width="2"/>
<line x1="210" y1="396.7387013524526" x2="391.26155740733" y2="481.2623537005926" stroke="black" stroke-width="2"/>
<line x1="391.26155740733" y1="481.2623537005926" x2="210" y2="396.7387013524526" stroke="red" stroke-width="2"/>
<line x1="210" y1="396.7387013524526" x2="397.9385241571817" y2="465.14273001758636" stroke="black" stroke-width="2"/>
<line x1="397.9385241571817" y1="465.14273001758636" x2="210" y2="396.7387013524526" stroke="red" stroke-width="2"/>
<line x1="210" y1="396.7387013524526" x2="403.18516525781365" y2="448.50251037295675" stroke="black" stroke-width="2"/>
<line x1="403.18516525781365" y1="448.50251037295675" x2="210" y2="396.7387013524526" stroke="red" stroke-width="2"/>
<line x1="210" y1="396.7387013524526" x2="406.96155060244155" y2="431.4683368858389" stroke="black" stroke-width="2"/>
<line x1="406.96155060244155" y1="431.4683368858389" x2="210" y2="396.7387013524526" stroke="red" stroke-width="2"/>
<line x1="210" y1="396.7387013524526" x2="409.23893961834915" y2="414.16984990198426" stroke="black" stroke-width="2"/>
<line x1="409.23893961834915" y1="414.16984990198426" x2="210" y2="396.7387013524526" stroke="red" stroke-width="2"/>
<line x1="210" y1="246.7387013524526" x2="230" y2="246.7387013524526" stroke="black" stroke-width="2"/>
<line x1="230" y1="246.7387013524526" x2="249.31851652578138" y2="241.56232045040218" stroke="black" stroke-width="2"/>
<line x1="249.31851652578138" y1="241.56232045040218" x2="266.63902460147017" y2="231.56232045040218" stroke="black" stroke-width="2"/>
<line x1="266.63902460147017" y1="231.56232045040218" x2="280.7811602252011" y2="217.42018482667123" stroke="black" stroke-width="2"/>
<line x1="280.7811602252011" y1="217.42018482667123" x2="290.7811602252011" y2="200.09967675098244" stroke="black" stroke-width="2"/>
<line x1="290.7811602252011" y1="200.09967675098244" x2="295.9575411272515" y2="180.78116022520112" stroke="black" stroke-width="2"/>
<line x1="295.9575411272515" y1="180.78116022520112" x2="295.9575411272515" y2="160.78116022520112" stroke="black" stroke-width="2"/>
<line x1="295.9575411272515" y1="160.78116022520112" x2="290.7811602252011" y2="141.4626436994197" stroke="black" stroke-width="2"/>
<line x1="290.7811602252011" y1="141.4626436994197" x2="280.7811602252011" y2="124.14213562373095" stroke="black" stroke-width="2"/>
<line x1="280.7811602252011" y1="124.14213562373095" x2="266.63902460147017" y2="110" stroke="black" stroke-width="2"/>
</svg>