<svg xmlns="http://www.w3.org/2000/svg" width="120" height="170" viewBox="0 0 120 170">
<rect width="120" height="170" fill="white"/>


<line x1="59.99999999999999" y1="160" x2="60" y2="60" stroke="green" stroke-width="2"/>
<line x1="60" y1="60" x2="60" y2="10" stroke="black" stroke-width="2"/>
<line x1="60" y1="10" x2="60" y2="60" stroke="red" stroke-width="2"/>
<line x1="60" y1="60" x2="24.64466094067263" y2="24.644660940672622" stroke="black" stroke-width="2"/>
<line x1="24.64466094067263" y1="24.644660940672622" x2="60" y2="60" stroke="orange" stroke-width="2"/>
<line x1="60" y1="60" x2="10" y2="60" stroke="black" stroke-width="2"/>
<line x1="10" y1="60" x2="60" y2="60" stroke="yellow" stroke-width="2"/>
<line x1="60" y1="60" x2="24.644660940672615" y2="95.35533905932738" stroke="black" stroke-width="2"/>
<line x1="24.644660940672615" y1="95.35533905932738" x2="60" y2="60" stroke="green" stroke-width="2"/>
<line x1="60" y1="60" x2="59.99999999999999" y2="110" stroke="black" stroke-width="2"/>
<line x1="59.99999999999999" y1="110" x2="60" y2="60" stroke="blue" stroke-width="2"/>
<line x1="60" y1="60" x2="95.35533905932738" y2="95.35533905932738" stroke="black" stroke-width="2"/>
<line x1="95.35533905932738" y1="95.35533905932738" x2="60" y2="60" stroke="purple" stroke-width="2"/>
<line x1="60" y1="60" x2="110" y2="60" stroke="black" stroke-width="2"/>
<line x1="110" y1="60" x2="60" y2="60" stroke="pink" stroke-width="2"/>
<line x1="60" y1="60" x2="95.35533905932738" y2="24.644660940672622" stroke="black" stroke-width="2"/>
<line x1="95.35533905932738" y1="24.644660940672622" x2="60" y2="60" stroke="brown" stroke-width="2"/>
</svg>