<svg xmlns="http://www.w3.org/2000/svg" width="213.18516525781365" height="187.30326074756158" viewBox="0 0 213.18516525781365 187.30326074756158">
<rect width="213.18516525781365" height="187.30326074756158" fill="black"/>


<line x1="106.59258262890684" y1="80.71067811865476" x2="106.59258262890684" y2="100.71067811865476" stroke="black" stroke-width="2"/>
<line x1="106.59258262890684" y1="100.71067811865476" x2="106.59258262890684" y2="80.71067811865476" stroke="red" stroke-width="2"/>
<line x1="106.59258262890684" y1="80.71067811865476" x2="117.15803917242432" y2="103.368372794571" stroke="black" stroke-width="2"/>
<line x1="117.15803917242432" y1="103.368372794571" x2="106.59258262890684" y2="80.71067811865476" stroke="orange" stroke-width="2"/>
<line x1="106.59258262890684" y1="80.71067811865476" x2="129.57391592247617" y2="99.99430640925092" stroke="black" stroke-width="2"/>
<line x1="129.57391592247617" y1="99.99430640925092" x2="106.59258262890684" y2="80.71067811865476" stroke="yellow" stroke-width="2"/>
<line x1="106.59258262890684" y1="80.71067811865476" x2="140.39998654902422" y2="89.76934469724299" stroke="black" stroke-width="2"/>
<line x1="140.39998654902422" y1="89.76934469724299" x2="106.59258262890684" y2="80.71067811865476" stroke="green" stroke-width="2"/>
<line x1="106.59258262890684" y1="80.71067811865476" x2="145.98489274939516" y2="73.76475101197754" stroke="black" stroke-width="2"/>
<line x1="145.98489274939516" y1="73.76475101197754" x2="106.59258262890684" y2="80.71067811865476" stroke="blue" stroke-width="2"/>
<line x1="106.59258262890684" y1="80.71067811865476" x2="143.45442462191147" y2="54.899738482857686" stroke="black" stroke-width="2"/>
<line x1="143.45442462191147" y1="54.899738482857686" x2="106.59258262890684" y2="80.71067811865476" stroke="purple" stroke-width="2"/>
<line x1="106.59258262890684" y1="80.71067811865476" x2="131.59258262890685" y2="37.40940792943283" stroke="black" stroke-width="2"/>
<line x1="131.59258262890685" y1="37.40940792943283" x2="106.59258262890684" y2="80.71067811865476" stroke="pink" stroke-width="2"/>
<line x1="106.59258262890684" y1="80.71067811865476" x2="111.38614848002804" y2="25.919969723608745" stroke="black" stroke-width="2"/>
<line x1="111.38614848002804" y1="25.919969723608745" x2="106.59258262890684" y2="80.71067811865476" stroke="purple" stroke-width="2"/>
<line x1="106.59258262890684" y1="80.71067811865476" x2="86.07137402936672" y2="24.329120871500265" stroke="black" stroke-width="2"/>
<line x1="86.07137402936672" y1="24.329120871500265" x2="106.59258262890684" y2="80.71067811865476" stroke="white" stroke-width="2"/>
<line x1="106.59258262890684" y1="80.71067811865476" x2="35.8819045102521" y2="10" stroke="black" stroke-width="2"/>
<line x1="35.8819045102521" y1="10" x2="106.59258262890684" y2="80.71067811865476" stroke="red" stroke-width="2"/>
<line x1="106.59258262890684" y1="80.71067811865476" x2="10.000000000000014" y2="54.828773608402656" stroke="black" stroke-width="2"/>
<line x1="10.000000000000014" y1="54.828773608402656" x2="106.59258262890684" y2="80.71067811865476" stroke="orange" stroke-width="2"/>
<line x1="106.59258262890684" y1="80.71067811865476" x2="10" y2="106.5925826289068" stroke="black" stroke-width="2"/>
<line x1="10" y1="106.5925826289068" x2="106.59258262890684" y2="80.71067811865476" stroke="yellow" stroke-width="2"/>
<line x1="106.59258262890684" y1="80.71067811865476" x2="35.88190451025207" y2="151.4213562373095" stroke="black" stroke-width="2"/>
<line x1="35.88190451025207" y1="151.4213562373095" x2="106.59258262890684" y2="80.71067811865476" stroke="green" stroke-width="2"/>
<line x1="106.59258262890684" y1="80.71067811865476" x2="80.71067811865478" y2="177.30326074756158" stroke="black" stroke-width="2"/>
<line x1="80.71067811865478" y1="177.30326074756158" x2="106.59258262890684" y2="80.71067811865476" stroke="blue" stroke-width="2"/>
<line x1="106.59258262890684" y1="80.71067811865476" x2="132.47448713915895" y2="177.30326074756158" stroke="black" stroke-width="2"/>
<line x1="132.47448713915895" y1="177.30326074756158" x2="106.59258262890684" y2="80.71067811865476" stroke="purple" stroke-width="2"/>
<line x1="106.59258262890684" y1="80.71067811865476" x2="177.30326074756158" y2="151.4213562373095" stroke="black" stroke-width="2"/>
<line x1="177.30326074756158" y1="151.4213562373095" x2="106.59258262890684" y2="80.71067811865476" stroke="pink" stroke-width="2"/>
<line x1="106.59258262890684" y1="80.71067811865476" x2="203.18516525781365" y2="106.59258262890683" stroke="black" stroke-width="2"/>
<line x1="203.18516525781365" y1="106.59258262890683" x2="106.59258262890684" y2="80.71067811865476" stroke="purple" stroke-width="2"/>
<line x1="106.59258262890684" y1="80.71067811865476" x2="203.18516525781365" y2="54.828773608402685" stroke="black" stroke-width="2"/>
<line x1="203.18516525781365" y1="54.828773608402685" x2="106.59258262890684" y2="80.71067811865476" stroke="white" stroke-width="2"/>
<line x1="106.59258262890684" y1="80.71067811865476" x2="177.30326074756158" y2="10" stroke="black" stroke-width="2"/>
<line x1="177.30326074756158" y1="10" x2="106.59258262890684" y2="80.71067811865476" stroke="grey" stroke-width="2"/>
<line x1="106.59258262890684" y1="80.71067811865476" x2="110.12811653483958" y2="77.17514421272202" stroke="black" stroke-width="2"/>
<line x1="110.12811653483958" y1="77.17514421272202" x2="106.59258262890684" y2="80.71067811865476" stroke="white" stroke-width="2"/>
<line x1="106.59258262890684" y1="80.71067811865476" x2="107.88667785441945" y2="75.88104898720941" stroke="black" stroke-width="2"/>
<line x1="107.88667785441945" y1="75.88104898720941" x2="106.59258262890684" y2="80.71067811865476" stroke="white" stroke-width="2"/>
<line x1="106.59258262890684" y1="80.71067811865476" x2="105.29848740339423" y2="75.88104898720941" stroke="black" stroke-width="2"/>
<line x1="105.29848740339423" y1="75.88104898720941" x2="106.59258262890684" y2="80.71067811865476" stroke="white" stroke-width="2"/>
<line x1="106.59258262890684" y1="80.71067811865476" x2="103.0570487229741" y2="77.17514421272202" stroke="black" stroke-width="2"/>
<line x1="103.0570487229741" y1="77.17514421272202" x2="106.59258262890684" y2="80.71067811865476" stroke="white" stroke-width="2"/>
<line x1="106.59258262890684" y1="80.71067811865476" x2="101.7629534974615" y2="79.41658289314215" stroke="black" stroke-width="2"/>
<line x1="101.7629534974615" y1="79.41658289314215" x2="106.59258262890684" y2="80.71067811865476" stroke="white" stroke-width="2"/>
<line x1="106.59258262890684" y1="80.71067811865476" x2="101.7629534974615" y2="82.00477334416736" stroke="black" stroke-width="2"/>
<line x1="101.7629534974615" y1="82.00477334416736" x2="106.59258262890684" y2="80.71067811865476" stroke="white" stroke-width="2"/>
<line x1="106.59258262890684" y1="80.71067811865476" x2="103.0570487229741" y2="84.24621202458749" stroke="black" stroke-width="2"/>
<line x1="103.0570487229741" y1="84.24621202458749" x2="106.59258262890684" y2="80.71067811865476" stroke="white" stroke-width="2"/>
<line x1="106.59258262890684" y1="80.71067811865476" x2="105.29848740339423" y2="85.5403072501001" stroke="black" stroke-width="2"/>
<line x1="105.29848740339423" y1="85.5403072501001" x2="106.59258262890684" y2="80.71067811865476" stroke="white" stroke-width="2"/>
<line x1="106.59258262890684" y1="80.71067811865476" x2="107.88667785441945" y2="85.5403072501001" stroke="black" stroke-width="2"/>
<line x1="107.88667785441945" y1="85.5403072501001" x2="106.59258262890684" y2="80.71067811865476" stroke="white" stroke-width="2"/>
<line x1="106.59258262890684" y1="80.71067811865476" x2="110.12811653483958" y2="84.24621202458749" stroke="black" stroke-width="2"/>
<line x1="110.12811653483958" y1="84.24621202458749" x2="106.59258262890684" y2="80.71067811865476" stroke="white" stroke-width="2"/>
<line x1="106.59258262890684" y1="80.71067811865476" x2="111.42221176035218" y2="82.00477334416736" stroke="black" stroke-width="2"/>
<line x1="111.42221176035218" y1="82.00477334416736" x2="106.59258262890684" y2="80.71067811865476" stroke="white" stroke-width="2"/>
<line x1="106.59258262890684" y1="80.71067811865476" x2="111.42221176035218" y2="79.41658289314215" stroke="black" stroke-width="2"/>
<line x1="111.42221176035218" y1="79.41658289314215" x2="106.59258262890684" y2="80.71067811865476" stroke="white" stroke-width="2"/>
</svg>