<svg xmlns="http://www.w3.org/2000/svg" width="246.27416997969516" height="246.27416997969522" viewBox="0 0 246.27416997969516 246.27416997969522">
<rect width="246.27416997969516" height="246.27416997969522" fill="lightgray"/>


<line x1="123.13708498984766" y1="123.13708498984761" x2="203.13708498984766" y2="123.13708498984761" stroke="red" stroke-width="2"/>
<line x1="203.13708498984766" y1="123.13708498984761" x2="203.13708498984766" y2="43.13708498984761" stroke="red" stroke-width="2"/>
<line x1="203.13708498984766" y1="43.13708498984761" x2="123.13708498984766" y2="43.13708498984761" stroke="red" stroke-width="2"/>
<line x1="123.13708498984766" y1="43.13708498984761" x2="123.13708498984765" y2="123.1370849898476" stroke="red" stroke-width="2"/>
<line x1="123.13708498984765" y1="123.1370849898476" x2="179.70562748477147" y2="66.5685424949238" stroke="red" stroke-width="2"/>
<line x1="179.70562748477147" y1="66.5685424949238" x2="123.13708498984766" y2="10" stroke="red" stroke-width="2"/>
<line x1="123.13708498984766" y1="10" x2="66.56854249492383" y2="66.5685424949238" stroke="red" stroke-width="2"/>
<line x1="66.56854249492383" y1="66.5685424949238" x2="123.13708498984764" y2="123.13708498984761" stroke="red" stroke-width="2"/>
<line x1="123.13708498984764" y1="123.13708498984761" x2="123.13708498984764" y2="43.13708498984761" stroke="red" stroke-width="2"/>
<line x1="123.13708498984764" y1="43.13708498984761" x2="43.13708498984764" y2="43.13708498984761" stroke="red" stroke-width="2"/>
<line x1="43.13708498984764" y1="43.13708498984761" x2="43.13708498984762" y2="123.1370849898476" stroke="red" stroke-width="2"/>
<line x1="43.13708498984762" y1="123.1370849898476" x2="123.13708498984762" y2="123.1370849898476" stroke="red" stroke-width="2"/>
<line x1="123.13708498984762" y1="123.1370849898476" x2="66.56854249492383" y2="66.5685424949238" stroke="red" stroke-width="2"/>
<line x1="66.56854249492383" y1="66.5685424949238" x2="10" y2="123.13708498984758" stroke="red" stroke-width="2"/>
<line x1="10" y1="123.13708498984758" x2="66.56854249492379" y2="179.7056274847714" stroke="red" stroke-width="2"/>
<line x1="66.56854249492379" y1="179.7056274847714" x2="123.1370849898476" y2="123.13708498984761" stroke="red" stroke-width="2"/>
<line x1="123.1370849898476" y1="123.13708498984761" x2="43.137084989847594" y2="123.1370849898476" stroke="red" stroke-width="2"/>
<line x1="43.137084989847594" y1="123.1370849898476" x2="43.13708498984758" y2="203.1370849898476" stroke="red" stroke-width="2"/>
<line x1="43.13708498984758" y1="203.1370849898476" x2="123.13708498984758" y2="203.1370849898476" stroke="red" stroke-width="2"/>
<line x1="123.13708498984758" y1="203.1370849898476" x2="123.13708498984758" y2="123.1370849898476" stroke="red" stroke-width="2"/>
<line x1="123.13708498984758" y1="123.1370849898476" x2="66.56854249492378" y2="179.70562748477138" stroke="red" stroke-width="2"/>
<line x1="66.56854249492378" y1="179.70562748477138" x2="123.13708498984755" y2="236.27416997969522" stroke="red" stroke-width="2"/>
<line x1="123.13708498984755" y1="236.27416997969522" x2="179.70562748477136" y2="179.7056274847714" stroke="red" stroke-width="2"/>
<line x1="179.70562748477136" y1="179.7056274847714" x2="123.13708498984757" y2="123.13708498984761" stroke="red" stroke-width="2"/>
<line x1="123.13708498984757" y1="123.13708498984761" x2="123.13708498984755" y2="203.1370849898476" stroke="red" stroke-width="2"/>
<line x1="123.13708498984755" y1="203.1370849898476" x2="203.13708498984755" y2="203.1370849898476" stroke="red" stroke-width="2"/>
<line x1="203.13708498984755" y1="203.1370849898476" x2="203.13708498984755" y2="123.13708498984761" stroke="red" stroke-width="2"/>
<line x1="203.13708498984755" y1="123.13708498984761" x2="123.13708498984755" y2="123.1370849898476" stroke="red" stroke-width="2"/>
<line x1="123.13708498984755" y1="123.1370849898476" x2="179.70562748477136" y2="179.7056274847714" stroke="red" stroke-width="2"/>
<line x1="179.70562748477136" y1="179.7056274847714" x2="236.27416997969516" y2="123.13708498984762" stroke="red" stroke-width="2"/>
<line x1="236.27416997969516" y1="123.13708498984762" x2="179.70562748477136" y2="66.5685424949238" stroke="red" stroke-width="2"/>
<line x1="179.70562748477136" y1="66.5685424949238" x2="123.13708498984752" y2="123.13708498984761" stroke="red" stroke-width="2"/>
</svg>